<svg xmlns="http://www.w3.org/2000/svg" xmlns:svg="http://www.w3.org/2000/svg" id="svg12076" width="502.275" height="455.224" version="1.1" viewBox="0 0 132.894 120.445"><metadata id="metadata12073"/><g id="layer1" transform="translate(-44.091015,-71.489294)"><g id="g12760"><path id="path11339" fill="#f2f2f2" d="m 163.76666,133.44405 c -11.03231,-8.24759 -28.31165,-16.04761 -47.40731,-21.39981 -17.386648,-4.87331 -34.345028,-7.22616 -47.754878,-6.62532 l -0.0698,-1.55947 c 13.56961,-0.6077 30.7039,1.76489 48.246038,6.68172 19.27372,5.40213 36.74026,13.29422 47.92073,21.65264 z" style="stroke-width:.264583"/><path id="path11341" fill="#00b0ff" d="m 162.62138,139.7968 a 51.947604,51.947604 0 0 1 -4.49568,21.20925 q -0.3723,0.83826 -0.77582,1.6609 a 52.141072,52.141072 0 0 1 -46.86576,29.2671 c -28.794118,0 -52.137248,-23.34313 -52.137248,-52.13725 q 0,-1.80998 0.12332,-3.59185 0.0585,-0.90616 0.15142,-1.80139 c 2.69896,-26.26063 24.89008,-46.744006 51.862508,-46.744006 28.79413,0 52.13726,23.343116 52.13726,52.137246 z" style="stroke-width:.264583"/><path id="path11343" d="m 158.1257,161.00605 q -0.3723,0.83826 -0.77582,1.6609 -2.2853,0.2482 -4.81099,0.36059 c -1.39396,0.0624 -2.82852,0.0937 -4.29429,0.0937 -12.80329,0 -28.21188,-2.36335 -43.95295,-6.77472 -17.542458,-4.91718 -33.413098,-11.79492 -44.689738,-19.3673 q -0.576,-0.38635 -1.13172,-0.77426 0.0585,-0.90616 0.15142,-1.80138 0.89679,0.63923 1.84978,1.28 c 11.14394,7.48185 26.85537,14.28624 44.241728,19.15967 15.60371,4.3739 30.86712,6.71696 43.52367,6.71696 q 2.17057,0 4.23187,-0.0921 3.00179,-0.13581 5.65704,-0.46206 z" opacity=".1" style="stroke-width:.264583"/><path id="path11345" fill="#f2f2f2" d="m 148.24481,161.87269 c -12.80291,2.7e-4 -28.2124,-2.36329 -43.95277,-6.77508 -17.542288,-4.91684 -33.413598,-11.79483 -44.690348,-19.36702 -11.512111,-7.7302 -16.910351,-15.34722 -15.200421,-21.44792 1.709854,-6.10068 10.280618,-9.80241 24.133391,-10.42322 l 0.0698,1.55947 c -6.46907,0.28986 -11.74108,1.25139 -15.669563,2.85781 -3.918953,1.60246 -6.284383,3.76491 -7.030577,6.42729 -0.746199,2.6623 0.150762,5.7391 2.665886,9.14501 2.521297,3.41414 6.525614,6.97562 11.901674,10.58558 11.14266,7.48218 26.85461,14.28669 44.241498,19.15992 15.60409,4.37353 30.86617,6.71716 43.5238,6.71746 q 2.16932,0 4.231,-0.0922 c 6.46914,-0.28995 11.74115,-1.25139 15.66971,-2.85781 3.91896,-1.60246 6.28439,-3.76484 7.03057,-6.42722 1.33982,-4.78054 -2.70933,-10.99221 -11.40181,-17.49069 l 0.93477,-1.25017 c 4.47308,3.34409 7.78424,6.6404 9.84159,9.79715 2.20551,3.38434 2.92169,6.5353 2.12855,9.36506 -1.70995,6.10068 -10.28079,9.80225 -24.1334,10.42315 -1.39394,0.0625 -2.82765,0.0935 -4.29337,0.0935 z" style="fill:silver;fill-opacity:1;stroke-width:.264583"/><circle id="circle11347" cx="111.863" cy="77.659" r=".597" fill="#f2f2f2" style="stroke-width:.264583"/><circle id="circle11349" cx="32.603" cy="103.154" r=".597" fill="#f2f2f2" style="stroke-width:.264583"/><circle id="circle11351" cx="30.412" cy="143.381" r=".597" fill="#f2f2f2" style="stroke-width:.264583"/><circle id="circle11353" cx="152.29" cy="81.244" r=".398" fill="#f2f2f2" style="stroke-width:.264583"/><circle id="circle11355" cx="200.285" cy="137.407" r=".398" fill="#f2f2f2" style="stroke-width:.264583"/><circle id="circle11357" cx="178.379" cy="119.085" r=".398" fill="#f2f2f2" style="stroke-width:.264583"/><circle id="circle11359" cx="68.648" cy="90.205" r=".398" fill="#f2f2f2" style="stroke-width:.264583"/><circle id="circle11361" cx="176.985" cy="132.03" r=".398" fill="#f2f2f2" style="stroke-width:.264583"/><circle id="circle11363" cx="35.192" cy="172.059" r=".398" fill="#f2f2f2" style="stroke-width:.264583"/><circle id="circle11365" cx="58.89" cy="188.389" r=".398" fill="#f2f2f2" style="stroke-width:.264583"/><polygon id="polygon11367" fill="#f2f2f2" points="673.413 40.826 673.413 38.749 672.299 38.749 672.299 40.826 670.221 40.826 670.221 41.941 672.299 41.941 672.299 44.018 673.413 44.018 673.413 41.941 675.49 41.941 675.49 40.826" transform="matrix(0.26458333,0,0,0.26458333,-85.380772,50.180534)"/><polygon id="polygon11369" fill="#f2f2f2" points="897.712 552.65 897.712 550.573 896.598 550.573 896.598 552.65 894.521 552.65 894.521 553.765 896.598 553.765 896.598 555.842 897.712 555.842 897.712 553.765 899.79 553.765 899.79 552.65" transform="matrix(0.26458333,0,0,0.26458333,-85.380772,50.180534)"/><polygon id="polygon11371" fill="#f2f2f2" points="1036.959 521.79 1036.959 519.713 1035.844 519.713 1035.844 521.79 1033.767 521.79 1033.767 522.905 1035.844 522.905 1035.844 524.982 1036.959 524.982 1036.959 522.905 1039.036 522.905 1039.036 521.79" transform="matrix(0.26458333,0,0,0.26458333,-85.380772,50.180534)"/><circle id="circle11373" cx="111.266" cy="98.972" r="4.381" fill="#3f3d56" style="stroke-width:.264583"/><circle id="circle11375" cx="77.61" cy="131.034" r="4.381" fill="#3f3d56" style="stroke-width:.264583"/><circle id="circle11377" cx="126.003" cy="175.046" r="4.381" fill="#3f3d56" style="stroke-width:.264583"/><circle id="circle11379" cx="111.266" cy="137.805" r="4.381" fill="#3f3d56" style="stroke-width:.264583"/><circle id="circle11381" cx="79.801" cy="161.902" r="4.381" fill="#3f3d56" style="stroke-width:.264583"/><circle id="circle11383" cx="134.765" cy="114.306" r="4.381" fill="#3f3d56" style="stroke-width:.264583"/><circle id="circle11385" cx="149.303" cy="143.979" r="4.381" fill="#3f3d56" style="stroke-width:.264583"/><circle id="circle11387" cx="111.266" cy="118.687" r="5.775" fill="#fff" style="stroke-width:.264583"/><path id="path11389" fill="#ff6584" d="m 111.26591,110.323 a 8.1650417,8.1650417 0 0 0 -8.16504,8.16504 c 0,4.50942 8.16504,19.31728 8.16504,19.31728 0,0 8.16505,-14.80786 8.16505,-19.31728 a 8.1650417,8.1650417 0 0 0 -8.16505,-8.16504 z m 0,12.14798 a 3.7838062,3.7838062 0 1 1 3.78381,-3.78381 3.7838062,3.7838062 0 0 1 -3.78381,3.78382 z" style="stroke-width:.264583"/><circle id="circle11391" cx="79.801" cy="143.381" r="5.775" fill="#fff" style="stroke-width:.264583"/><path id="path11393" fill="#ff6584" d="m 79.800652,135.01727 a 8.1650417,8.1650417 0 0 0 -8.16504,8.16504 c 0,4.50943 8.16504,19.31728 8.16504,19.31728 0,0 8.16504,-14.80785 8.16504,-19.31728 a 8.1650417,8.1650417 0 0 0 -8.16504,-8.16504 z m 0,12.14798 a 3.7838062,3.7838062 0 1 1 3.78381,-3.78381 3.7838062,3.7838062 0 0 1 -3.78381,3.78381 z" style="stroke-width:.264583"/><circle id="circle11395" cx="149.303" cy="125.458" r="5.775" fill="#fff" style="stroke-width:.264583"/><path id="path11397" fill="#ff6584" d="m 149.30305,117.09401 a 8.1650417,8.1650417 0 0 0 -8.16504,8.16504 c 0,4.50943 8.16504,19.31729 8.16504,19.31729 0,0 8.16504,-14.80786 8.16504,-19.31729 a 8.1650417,8.1650417 0 0 0 -8.16504,-8.16504 z m 0,12.14799 a 3.7838062,3.7838062 0 1 1 3.78381,-3.78381 3.7838062,3.7838062 0 0 1 -3.78381,3.78381 z" style="stroke-width:.264583"/><circle id="circle11399" cx="111.266" cy="79.853" r="5.775" fill="#fff" style="stroke-width:.264583"/><path id="path11401" fill="#ff6584" d="m 111.26591,71.489294 a 8.1650417,8.1650417 0 0 0 -8.16504,8.16504 c 0,4.50943 8.16504,19.31729 8.16504,19.31729 0,0 8.16505,-14.80786 8.16505,-19.31729 a 8.1650417,8.1650417 0 0 0 -8.16505,-8.16504 z m 0,12.14798 a 3.7838062,3.7838062 0 1 1 3.78381,-3.7838 3.7838062,3.7838062 0 0 1 -3.78381,3.7838 z" style="stroke-width:.264583"/><circle id="circle11403" cx="126.003" cy="156.525" r="5.775" fill="#fff" style="stroke-width:.264583"/><path id="path11405" fill="#ff6584" d="m 126.00281,148.16099 a 8.1650417,8.1650417 0 0 0 -8.16504,8.16504 c 0,4.50942 8.16504,19.31728 8.16504,19.31728 0,0 8.16504,-14.80786 8.16504,-19.31728 a 8.1650417,8.1650417 0 0 0 -8.16504,-8.16504 z m 0,12.14798 a 3.7838062,3.7838062 0 1 1 3.78381,-3.78381 3.7838062,3.7838062 0 0 1 -3.78381,3.78381 z" style="stroke-width:.264583"/><circle id="circle11407" cx="77.61" cy="112.115" r="5.775" fill="#fff" style="stroke-width:.264583"/><path id="path11409" fill="#ff6584" d="m 77.610032,103.75115 a 8.1650417,8.1650417 0 0 0 -8.16504,8.16504 c 0,4.50942 8.16504,19.31728 8.16504,19.31728 0,0 8.16504,-14.80786 8.16504,-19.31728 a 8.1650417,8.1650417 0 0 0 -8.16504,-8.16504 z m 0,12.14798 a 3.7838062,3.7838062 0 1 1 3.78381,-3.78381 3.7838062,3.7838062 0 0 1 -3.78381,3.78381 z" style="stroke-width:.264583"/><circle id="circle11411" cx="134.765" cy="95.984" r="5.775" fill="#fff" style="stroke-width:.264583"/><path id="path11413" fill="#ff6584" d="m 134.76529,87.620224 a 8.1650417,8.1650417 0 0 0 -8.16504,8.16504 c 0,4.509426 8.16504,19.317276 8.16504,19.317276 0,0 8.16504,-14.80785 8.16504,-19.317276 a 8.1650417,8.1650417 0 0 0 -8.16504,-8.16504 z m 0,12.14798 a 3.7838062,3.7838062 0 1 1 3.78381,-3.7838 3.7838062,3.7838062 0 0 1 -3.78381,3.7838 z" style="stroke-width:.264583"/></g></g></svg>